
<!--* Arrow right-->
<svg xmlns="http://www.w3.org/2000/svg" width="21" height="8" viewBox="0 0 21 8" fill="none">
  <path d="M20.3536 4.35355C20.5488 4.15829 20.5488 3.84171 20.3536 3.64645L17.1716 0.464466C16.9763 0.269204 16.6597 0.269204 16.4645 0.464466C16.2692 0.659728 16.2692 0.976311 16.4645 1.17157L19.2929 4L16.4645 6.82843C16.2692 7.02369 16.2692 7.34027 16.4645 7.53553C16.6597 7.7308 16.9763 7.7308 17.1716 7.53553L20.3536 4.35355ZM0 4.5L20 4.5V3.5L0 3.5L0 4.5Z" fill="white"/>
</svg>

<!--* Arrow bottom -->
<svg xmlns="http://www.w3.org/2000/svg" width="15" height="15" viewBox="0 0 15 15" fill="none">
  <path d="M12.6001 5.40004L7.5001 9.60004L2.4001 5.40004" stroke="white" stroke-width="3.2"/>
</svg>

<!-- Arrow left -->
<svg xmlns="http://www.w3.org/2000/svg" width="30" height="30" viewBox="0 0 30 30" fill="none">
  <path d="M17.5 21.25L11.25 15L17.5 8.75M3.75 15C3.75 21.2132 8.7868 26.25 15 26.25C21.2132 26.25 26.25 21.2132 26.25 15C26.25 8.7868 21.2132 3.75 15 3.75C8.7868 3.75 3.75 8.7868 3.75 15Z" stroke="white" stroke-width="1.5" stroke-linecap="round" stroke-linejoin="round"/>
</svg>

<!-- Arrow right -->
<svg xmlns="http://www.w3.org/2000/svg" width="30" height="30" viewBox="0 0 30 30" fill="none">
  <path d="M12.5 21.25L18.75 15L12.5 8.75M26.25 15C26.25 21.2132 21.2132 26.25 15 26.25C8.7868 26.25 3.75 21.2132 3.75 15C3.75 8.7868 8.7868 3.75 15 3.75C21.2132 3.75 26.25 8.7868 26.25 15Z" stroke="white" stroke-width="1.5" stroke-linecap="round" stroke-linejoin="round"/>
</svg>

<!--! Icons -->

<!--* Instagram -->
<svg xmlns="http://www.w3.org/2000/svg" width="17" height="17" viewBox="0 0 17 17" fill="none">
  <g clip-path="url(#clip0_1_1764)">
    <path d="M8.3335 1.96309C10.471 1.96309 10.7241 1.97246 11.5647 2.00996C12.346 2.04434 12.7679 2.17559 13.0491 2.28496C13.421 2.42871 13.6897 2.60371 13.9679 2.88184C14.2491 3.16309 14.421 3.42871 14.5647 3.80059C14.6741 4.08184 14.8054 4.50684 14.8397 5.28496C14.8772 6.12871 14.8866 6.38184 14.8866 8.51621C14.8866 10.6537 14.8772 10.9068 14.8397 11.7475C14.8054 12.5287 14.6741 12.9506 14.5647 13.2318C14.421 13.6037 14.246 13.8725 13.9679 14.1506C13.6866 14.4318 13.421 14.6037 13.0491 14.7475C12.7679 14.8568 12.3429 14.9881 11.5647 15.0225C10.721 15.06 10.4679 15.0693 8.3335 15.0693C6.196 15.0693 5.94287 15.06 5.10225 15.0225C4.321 14.9881 3.89912 14.8568 3.61787 14.7475C3.246 14.6037 2.97725 14.4287 2.69912 14.1506C2.41787 13.8693 2.246 13.6037 2.10225 13.2318C1.99287 12.9506 1.86162 12.5256 1.82725 11.7475C1.78975 10.9037 1.78037 10.6506 1.78037 8.51621C1.78037 6.37871 1.78975 6.12559 1.82725 5.28496C1.86162 4.50371 1.99287 4.08184 2.10225 3.80059C2.246 3.42871 2.421 3.15996 2.69912 2.88184C2.98037 2.60059 3.246 2.42871 3.61787 2.28496C3.89912 2.17559 4.32412 2.04434 5.10225 2.00996C5.94287 1.97246 6.196 1.96309 8.3335 1.96309ZM8.3335 0.522461C6.16162 0.522461 5.88975 0.531836 5.03662 0.569336C4.18662 0.606836 3.60225 0.744336 3.096 0.941211C2.56787 1.14746 2.121 1.41934 1.67725 1.86621C1.23037 2.30996 0.958496 2.75684 0.752246 3.28184C0.555371 3.79121 0.417871 4.37246 0.380371 5.22246C0.342871 6.07871 0.333496 6.35059 0.333496 8.52246C0.333496 10.6943 0.342871 10.9662 0.380371 11.8193C0.417871 12.6693 0.555371 13.2537 0.752246 13.76C0.958496 14.2881 1.23037 14.735 1.67725 15.1787C2.121 15.6225 2.56787 15.8975 3.09287 16.1006C3.60225 16.2975 4.1835 16.435 5.0335 16.4725C5.88662 16.51 6.1585 16.5193 8.33037 16.5193C10.5022 16.5193 10.7741 16.51 11.6272 16.4725C12.4772 16.435 13.0616 16.2975 13.5679 16.1006C14.0929 15.8975 14.5397 15.6225 14.9835 15.1787C15.4272 14.735 15.7022 14.2881 15.9054 13.7631C16.1022 13.2537 16.2397 12.6725 16.2772 11.8225C16.3147 10.9693 16.3241 10.6975 16.3241 8.52559C16.3241 6.35371 16.3147 6.08184 16.2772 5.22871C16.2397 4.37871 16.1022 3.79434 15.9054 3.28809C15.7085 2.75684 15.4366 2.30996 14.9897 1.86621C14.546 1.42246 14.0991 1.14746 13.5741 0.944336C13.0647 0.747461 12.4835 0.609961 11.6335 0.572461C10.7772 0.531836 10.5054 0.522461 8.3335 0.522461Z" fill="#232536"/>
    <path d="M8.3335 4.41309C6.06475 4.41309 4.22412 6.25371 4.22412 8.52246C4.22412 10.7912 6.06475 12.6318 8.3335 12.6318C10.6022 12.6318 12.4429 10.7912 12.4429 8.52246C12.4429 6.25371 10.6022 4.41309 8.3335 4.41309ZM8.3335 11.1881C6.86162 11.1881 5.66787 9.99434 5.66787 8.52246C5.66787 7.05059 6.86162 5.85684 8.3335 5.85684C9.80537 5.85684 10.9991 7.05059 10.9991 8.52246C10.9991 9.99434 9.80537 11.1881 8.3335 11.1881Z" fill="#232536"/>
    <path d="M13.5647 4.25064C13.5647 4.78189 13.1335 5.21001 12.6054 5.21001C12.0741 5.21001 11.646 4.77876 11.646 4.25064C11.646 3.71939 12.0772 3.29126 12.6054 3.29126C13.1335 3.29126 13.5647 3.72251 13.5647 4.25064Z" fill="#232536"/>
  </g>
  <defs>
    <clipPath id="clip0_1_1764">
      <rect width="16" height="16" fill="white" transform="translate(0.333496 0.522461)"/>
    </clipPath>
  </defs>
</svg>

<!--* Facebook -->
<svg xmlns="http://www.w3.org/2000/svg" width="16" height="17" viewBox="0 0 16 17" fill="none">
  <g clip-path="url(#clip0_1_1760)">
    <path d="M16 8.52246C16 4.10418 12.4183 0.522461 8 0.522461C3.58172 0.522461 0 4.10418 0 8.52246C0 12.5154 2.92547 15.8251 6.75 16.4253V10.835H4.71875V8.52246H6.75V6.75996C6.75 4.75496 7.94438 3.64746 9.77172 3.64746C10.6467 3.64746 11.5625 3.80371 11.5625 3.80371V5.77246H10.5538C9.56 5.77246 9.25 6.38918 9.25 7.02246V8.52246H11.4688L11.1141 10.835H9.25V16.4253C13.0745 15.8251 16 12.5154 16 8.52246Z" fill="#232536"/>
  </g>
  <defs>
    <clipPath id="clip0_1_1760">
      <rect width="16" height="16" fill="white" transform="translate(0 0.522461)"/>
    </clipPath>
  </defs>
</svg>

<!--* Twitter -->
<svg xmlns="http://www.w3.org/2000/svg" width="17" height="17" viewBox="0 0 17 17" fill="none">
  <g clip-path="url(#clip0_1_1762)">
    <path d="M5.69994 15.0225C11.7362 15.0225 15.0387 10.0203 15.0387 5.6837C15.0387 5.54308 15.0356 5.39933 15.0293 5.2587C15.6718 4.7941 16.2262 4.21863 16.6665 3.55933C16.0682 3.82553 15.4329 3.99938 14.7824 4.07495C15.4674 3.6644 15.9802 3.01944 16.2259 2.25964C15.5815 2.6415 14.8769 2.91087 14.1421 3.0562C13.6471 2.53017 12.9925 2.18187 12.2796 2.06516C11.5668 1.94845 10.8353 2.06983 10.1983 2.41053C9.56137 2.75122 9.05437 3.29226 8.75574 3.95C8.4571 4.60774 8.38346 5.34554 8.54619 6.04933C7.2415 5.98385 5.96513 5.64493 4.79983 5.05453C3.63452 4.46412 2.6063 3.63542 1.78182 2.62214C1.36277 3.34462 1.23454 4.19956 1.42319 5.01319C1.61184 5.82682 2.10321 6.53809 2.79744 7.00245C2.27626 6.9859 1.76649 6.84558 1.31025 6.59308V6.6337C1.30979 7.39189 1.5719 8.12685 2.05204 8.71364C2.53219 9.30043 3.20072 9.70284 3.944 9.85245C3.46121 9.98455 2.95449 10.0038 2.46307 9.9087C2.67281 10.5608 3.08089 11.1311 3.63035 11.54C4.17982 11.949 4.84325 12.1762 5.52807 12.19C4.36545 13.1032 2.92929 13.5985 1.45088 13.5962C1.1887 13.5958 0.92677 13.5797 0.666504 13.5481C2.16841 14.5116 3.91552 15.0234 5.69994 15.0225Z" fill="#232536"/>
  </g>
  <defs>
    <clipPath id="clip0_1_1762">
      <rect width="16" height="16" fill="white" transform="translate(0.666504 0.522461)"/>
    </clipPath>
  </defs>
</svg>

<!--* Discord -->
<svg xmlns="http://www.w3.org/2000/svg" width="24" height="19" viewBox="0 0 24 19" fill="none">
  <path d="M20.317 2.15704C18.7873 1.45516 17.147 0.938041 15.4319 0.641867C15.4007 0.636151 15.3695 0.650436 15.3534 0.679006C15.1424 1.05422 14.9087 1.54372 14.7451 1.92846C12.9004 1.65229 11.0652 1.65229 9.25832 1.92846C9.09465 1.53517 8.85248 1.05422 8.64057 0.679006C8.62449 0.651389 8.59328 0.637105 8.56205 0.641867C6.84791 0.937095 5.20756 1.45421 3.67693 2.15704C3.66368 2.16275 3.65233 2.17228 3.64479 2.18466C0.533392 6.83302 -0.31895 11.3671 0.0991801 15.845C0.101072 15.8669 0.11337 15.8879 0.130398 15.9012C2.18321 17.4087 4.17171 18.3239 6.12328 18.9306C6.15451 18.9401 6.18761 18.9287 6.20748 18.903C6.66913 18.2725 7.08064 17.6078 7.43348 16.9088C7.4543 16.8678 7.43442 16.8193 7.39186 16.8031C6.73913 16.5555 6.1176 16.2536 5.51973 15.9107C5.47244 15.8831 5.46865 15.8155 5.51216 15.7831C5.63797 15.6888 5.76382 15.5907 5.88396 15.4917C5.90569 15.4736 5.93598 15.4698 5.96153 15.4812C9.88928 17.2745 14.1415 17.2745 18.023 15.4812C18.0485 15.4688 18.0788 15.4726 18.1015 15.4907C18.2216 15.5898 18.3475 15.6888 18.4742 15.7831C18.5177 15.8155 18.5149 15.8831 18.4676 15.9107C17.8697 16.2602 17.2482 16.5555 16.5945 16.8021C16.552 16.8183 16.533 16.8678 16.5538 16.9088C16.9143 17.6068 17.3258 18.2716 17.7789 18.902C17.7978 18.9287 17.8319 18.9401 17.8631 18.9306C19.8241 18.3239 21.8126 17.4087 23.8654 15.9012C23.8834 15.8879 23.8948 15.8679 23.8967 15.846C24.3971 10.669 23.0585 6.1721 20.3482 2.1856C20.3416 2.17228 20.3303 2.16275 20.317 2.15704ZM8.02002 13.1184C6.8375 13.1184 5.86313 12.0328 5.86313 10.6995C5.86313 9.36623 6.8186 8.28059 8.02002 8.28059C9.23087 8.28059 10.1958 9.37577 10.1769 10.6995C10.1769 12.0328 9.22141 13.1184 8.02002 13.1184ZM15.9947 13.1184C14.8123 13.1184 13.8379 12.0328 13.8379 10.6995C13.8379 9.36623 14.7933 8.28059 15.9947 8.28059C17.2056 8.28059 18.1705 9.37577 18.1516 10.6995C18.1516 12.0328 17.2056 13.1184 15.9947 13.1184Z" fill="#C8C7D8"/>
</svg>

<!--* GitHub -->
<svg xmlns="http://www.w3.org/2000/svg" width="24" height="24" viewBox="0 0 24 24" fill="none">
  <path fill-rule="evenodd" clip-rule="evenodd" d="M12 0.299805C5.4 0.299805 0 5.6998 0 12.2998C0 17.6248 3.45 22.1248 8.175 23.6998C8.775 23.7748 9 23.4748 9 23.0998C9 22.7998 9 22.0498 9 21.0748C5.625 21.8248 4.95 19.4998 4.95 19.4998C4.425 18.1498 3.6 17.7748 3.6 17.7748C2.475 17.0248 3.675 17.0248 3.675 17.0248C4.875 17.0998 5.55 18.2248 5.55 18.2248C6.6 20.0248 8.325 19.4998 9.075 19.1998C9.15 18.4498 9.525 17.9248 9.825 17.6248C7.125 17.3248 4.35 16.2748 4.35 11.6998C4.35 10.4248 4.8 9.29981 5.55 8.47481C5.4 8.17481 5.025 6.9748 5.7 5.3248C5.7 5.3248 6.675 5.02481 9 6.52481C9.975 6.22481 10.95 6.14981 12 6.14981C13.05 6.14981 14.025 6.29981 15 6.52481C17.325 4.94981 18.3 5.2498 18.3 5.2498C18.975 6.89981 18.525 8.09981 18.45 8.39981C19.2 9.22481 19.65 10.2748 19.65 11.6248C19.65 16.1998 16.875 17.2498 14.175 17.5498C14.625 17.9248 15 18.6748 15 19.7998C15 21.3748 15 22.7248 15 23.0998C15 23.3998 15.225 23.7748 15.825 23.6998C20.55 22.1248 24 17.6248 24 12.2998C24 5.6998 18.6 0.299805 12 0.299805Z" fill="#121127" fill-opacity="0.32"/>
</svg>

<!--* Mail -->
<svg xmlns="http://www.w3.org/2000/svg" width="25" height="20" viewBox="0 0 25 20" fill="none">
  <path d="M22.5 5L12.5 11.25L2.5 5V2.5L12.5 8.75L22.5 2.5V5ZM22.5 0H2.5C1.1125 0 0 1.1125 0 2.5V17.5C0 18.163 0.263392 18.7989 0.732233 19.2678C1.20107 19.7366 1.83696 20 2.5 20H22.5C23.163 20 23.7989 19.7366 24.2678 19.2678C24.7366 18.7989 25 18.163 25 17.5V2.5C25 1.83696 24.7366 1.20107 24.2678 0.732233C23.7989 0.263392 23.163 0 22.5 0Z" fill="white"/>
</svg>

<!--* Phone -->
<svg xmlns="http://www.w3.org/2000/svg" width="23" height="23" viewBox="0 0 23 23" fill="none">
  <path d="M4.62556 9.95389C6.46556 13.57 9.43 16.5344 13.0461 18.3744L15.8572 15.5633C16.215 15.2056 16.7133 15.1033 17.1606 15.2439C18.5917 15.7167 20.125 15.9722 21.7222 15.9722C22.0611 15.9722 22.3861 16.1068 22.6257 16.3465C22.8654 16.5861 23 16.9111 23 17.25V21.7222C23 22.0611 22.8654 22.3861 22.6257 22.6257C22.3861 22.8654 22.0611 23 21.7222 23C15.9611 23 10.436 20.7114 6.36229 16.6377C2.28858 12.564 0 7.03887 0 1.27778C0 0.93889 0.134623 0.613882 0.374252 0.374252C0.613882 0.134623 0.93889 0 1.27778 0H5.75C6.08889 0 6.4139 0.134623 6.65353 0.374252C6.89316 0.613882 7.02778 0.93889 7.02778 1.27778C7.02778 2.875 7.28333 4.40833 7.75611 5.83944C7.89667 6.28667 7.79444 6.785 7.43667 7.14278L4.62556 9.95389Z" fill="white"/>
</svg>

<!--* Search -->
<svg xmlns="http://www.w3.org/2000/svg" width="24" height="24" viewBox="0 0 24 24" fill="none">
  <path d="M8.91429 0C11.2785 0 13.5459 0.939181 15.2176 2.61093C16.8894 4.28269 17.8286 6.55007 17.8286 8.91429C17.8286 11.1223 17.0194 13.152 15.6891 14.7154L16.0594 15.0857H17.1429L24 21.9429L21.9429 24L15.0857 17.1429V16.0594L14.7154 15.6891C13.0979 17.0699 11.041 17.8284 8.91429 17.8286C6.55007 17.8286 4.28269 16.8894 2.61093 15.2176C0.939181 13.5459 0 11.2785 0 8.91429C0 6.55007 0.939181 4.28269 2.61093 2.61093C4.28269 0.939181 6.55007 0 8.91429 0ZM8.91429 2.74286C5.48571 2.74286 2.74286 5.48571 2.74286 8.91429C2.74286 12.3429 5.48571 15.0857 8.91429 15.0857C12.3429 15.0857 15.0857 12.3429 15.0857 8.91429C15.0857 5.48571 12.3429 2.74286 8.91429 2.74286Z" fill="black"/>
</svg>

<!--* Location -->
<svg xmlns="http://www.w3.org/2000/svg" width="14" height="20" viewBox="0 0 14 20" fill="none">
  <path d="M7 9.5C6.33696 9.5 5.70107 9.23661 5.23223 8.76777C4.76339 8.29893 4.5 7.66304 4.5 7C4.5 6.33696 4.76339 5.70107 5.23223 5.23223C5.70107 4.76339 6.33696 4.5 7 4.5C7.66304 4.5 8.29893 4.76339 8.76777 5.23223C9.23661 5.70107 9.5 6.33696 9.5 7C9.5 7.3283 9.43534 7.65339 9.3097 7.95671C9.18406 8.26002 8.99991 8.53562 8.76777 8.76777C8.53562 8.99991 8.26002 9.18406 7.95671 9.3097C7.65339 9.43534 7.3283 9.5 7 9.5ZM7 0C5.14348 0 3.36301 0.737498 2.05025 2.05025C0.737498 3.36301 0 5.14348 0 7C0 12.25 7 20 7 20C7 20 14 12.25 14 7C14 5.14348 13.2625 3.36301 11.9497 2.05025C10.637 0.737498 8.85652 0 7 0Z" fill="#F2F2F2"/>
</svg>

<!--* Chain -->
<svg xmlns="http://www.w3.org/2000/svg" width="26" height="26" viewBox="0 0 26 26" fill="none">
  <g clip-path="url(#clip0_831_8753)">
    <path d="M24.9318 5.42369H4.60293L4.30075 2.0573C4.25133 1.50678 3.78995 1.08496 3.23724 1.08496H1.06778C0.478059 1.08496 0 1.56302 0 2.15274C0 2.74246 0.478059 3.22051 1.06778 3.22051H2.26104C2.91315 10.4856 1.22779 -8.2919 3.48914 16.9027C3.57629 17.8889 4.10911 18.9589 5.02699 19.686C3.37209 21.7994 4.88416 24.915 7.57613 24.915C9.81042 24.915 11.3863 22.6866 10.6201 20.5761H16.4642C15.699 22.6839 17.2714 24.915 19.5082 24.915C21.2932 24.915 22.7454 23.4628 22.7454 21.6778C22.7454 19.8928 21.2932 18.4405 19.5082 18.4405H7.58335C6.77224 18.4405 6.06543 17.9512 5.76035 17.2382L22.8248 16.2353C23.2907 16.208 23.6849 15.8811 23.7981 15.4284L25.9677 6.75043C26.1359 6.07753 25.6265 5.42369 24.9318 5.42369ZM7.57613 22.7795C6.96872 22.7795 6.47449 22.2853 6.47449 21.6778C6.47449 21.0703 6.96872 20.5761 7.57613 20.5761C8.18359 20.5761 8.67782 21.0703 8.67782 21.6778C8.67782 22.2853 8.18359 22.7795 7.57613 22.7795ZM19.5081 22.7795C18.9007 22.7795 18.4064 22.2853 18.4064 21.6778C18.4064 21.0703 18.9007 20.5761 19.5081 20.5761C20.1156 20.5761 20.6098 21.0703 20.6098 21.6778C20.6098 22.2853 20.1156 22.7795 19.5081 22.7795ZM21.9165 14.1495L5.47291 15.1158L4.79462 7.55919H23.5642L21.9165 14.1495Z" fill="black"/>
  </g>
  <defs>
    <clipPath id="clip0_831_8753">
      <rect width="26" height="26" fill="white"/>
    </clipPath>
  </defs>
</svg>